<mxfile host="app.diagrams.net" agent="Mozilla/5.0 (Windows NT 10.0; Win64; x64) AppleWebKit/537.36 (KHTML, like Gecko) Chrome/129.0.0.0 Safari/537.36" version="24.7.17">
  <diagram name="Seite-1" id="skLz0wxc-qKJKXQR-0dg">
    <mxGraphModel dx="2059" dy="1097" grid="1" gridSize="10" guides="1" tooltips="1" connect="1" arrows="1" fold="1" page="1" pageScale="1" pageWidth="827" pageHeight="1169" math="0" shadow="0">
      <root>
        <mxCell id="0" />
        <mxCell id="1" parent="0" />
        <mxCell id="5tvh4FMFr1Dn6_LqTV1b-1" value="Phase 1" style="swimlane;whiteSpace=wrap;html=1;swimlaneFillColor=none;" parent="1" vertex="1">
          <mxGeometry x="1" y="200" width="200" height="260" as="geometry" />
        </mxCell>
        <mxCell id="5tvh4FMFr1Dn6_LqTV1b-5" value="Komponenten" style="rounded=0;whiteSpace=wrap;html=1;fillColor=#ffe6cc;strokeColor=#d79b00;" parent="5tvh4FMFr1Dn6_LqTV1b-1" vertex="1">
          <mxGeometry x="20" y="80" width="150" height="30" as="geometry" />
        </mxCell>
        <mxCell id="5tvh4FMFr1Dn6_LqTV1b-14" value="Struktur" style="rounded=0;whiteSpace=wrap;html=1;fillColor=#f8cecc;strokeColor=#b85450;" parent="5tvh4FMFr1Dn6_LqTV1b-1" vertex="1">
          <mxGeometry x="20" y="210" width="150" height="30" as="geometry" />
        </mxCell>
        <mxCell id="5tvh4FMFr1Dn6_LqTV1b-28" value="KO" style="rhombus;whiteSpace=wrap;html=1;fillColor=#f5f5f5;fontColor=#333333;strokeColor=#666666;" parent="5tvh4FMFr1Dn6_LqTV1b-1" vertex="1">
          <mxGeometry x="-20" y="23" width="40" height="40" as="geometry" />
        </mxCell>
        <mxCell id="5tvh4FMFr1Dn6_LqTV1b-2" value="Phase 2" style="swimlane;whiteSpace=wrap;html=1;" parent="1" vertex="1">
          <mxGeometry x="201" y="200" width="200" height="260" as="geometry" />
        </mxCell>
        <mxCell id="5tvh4FMFr1Dn6_LqTV1b-7" value="Mechanischer Aufbau" style="rounded=0;whiteSpace=wrap;html=1;fillColor=#ffe6cc;strokeColor=#d79b00;" parent="5tvh4FMFr1Dn6_LqTV1b-2" vertex="1">
          <mxGeometry x="30" y="80" width="150" height="30" as="geometry" />
        </mxCell>
        <mxCell id="5tvh4FMFr1Dn6_LqTV1b-15" value="Anlagenparameter" style="rounded=0;whiteSpace=wrap;html=1;fillColor=#f8cecc;strokeColor=#b85450;" parent="5tvh4FMFr1Dn6_LqTV1b-2" vertex="1">
          <mxGeometry x="30" y="140" width="150" height="30" as="geometry" />
        </mxCell>
        <mxCell id="5tvh4FMFr1Dn6_LqTV1b-29" value="SR" style="rhombus;whiteSpace=wrap;html=1;fillColor=#f5f5f5;fontColor=#333333;strokeColor=#666666;" parent="5tvh4FMFr1Dn6_LqTV1b-2" vertex="1">
          <mxGeometry x="-20" y="23" width="40" height="40" as="geometry" />
        </mxCell>
        <mxCell id="5tvh4FMFr1Dn6_LqTV1b-3" value="Phase 3" style="swimlane;whiteSpace=wrap;html=1;" parent="1" vertex="1">
          <mxGeometry x="401" y="200" width="200" height="260" as="geometry" />
        </mxCell>
        <mxCell id="5tvh4FMFr1Dn6_LqTV1b-13" value="Anlagenmodell" style="rounded=0;whiteSpace=wrap;html=1;fillColor=#f8cecc;strokeColor=#b85450;" parent="5tvh4FMFr1Dn6_LqTV1b-3" vertex="1">
          <mxGeometry x="25" y="170" width="150" height="30" as="geometry" />
        </mxCell>
        <mxCell id="5tvh4FMFr1Dn6_LqTV1b-22" style="edgeStyle=orthogonalEdgeStyle;rounded=0;orthogonalLoop=1;jettySize=auto;html=1;startArrow=classic;startFill=1;fillColor=#f8cecc;strokeColor=#b85450;" parent="5tvh4FMFr1Dn6_LqTV1b-3" source="5tvh4FMFr1Dn6_LqTV1b-11" target="5tvh4FMFr1Dn6_LqTV1b-13" edge="1">
          <mxGeometry relative="1" as="geometry" />
        </mxCell>
        <mxCell id="5tvh4FMFr1Dn6_LqTV1b-11" value="Prozessmodell" style="rounded=0;whiteSpace=wrap;html=1;fillColor=#f8cecc;strokeColor=#b85450;" parent="5tvh4FMFr1Dn6_LqTV1b-3" vertex="1">
          <mxGeometry x="25" y="110" width="150" height="30" as="geometry" />
        </mxCell>
        <mxCell id="5tvh4FMFr1Dn6_LqTV1b-31" value="MDR" style="rhombus;whiteSpace=wrap;html=1;fillColor=#f5f5f5;fontColor=#333333;strokeColor=#666666;" parent="5tvh4FMFr1Dn6_LqTV1b-3" vertex="1">
          <mxGeometry x="-20" y="24" width="40" height="40" as="geometry" />
        </mxCell>
        <mxCell id="UUyqQvhFd6GukPTLQ79a-6" value="" style="endArrow=none;html=1;rounded=0;" parent="5tvh4FMFr1Dn6_LqTV1b-3" edge="1">
          <mxGeometry width="50" height="50" relative="1" as="geometry">
            <mxPoint x="109" y="145" as="sourcePoint" />
            <mxPoint x="179" y="145" as="targetPoint" />
          </mxGeometry>
        </mxCell>
        <mxCell id="UUyqQvhFd6GukPTLQ79a-7" value="" style="endArrow=none;html=1;rounded=0;" parent="5tvh4FMFr1Dn6_LqTV1b-3" edge="1">
          <mxGeometry width="50" height="50" relative="1" as="geometry">
            <mxPoint x="109" y="145" as="sourcePoint" />
            <mxPoint x="109" y="165" as="targetPoint" />
          </mxGeometry>
        </mxCell>
        <mxCell id="UUyqQvhFd6GukPTLQ79a-8" value="" style="endArrow=none;html=1;rounded=0;" parent="5tvh4FMFr1Dn6_LqTV1b-3" edge="1">
          <mxGeometry width="50" height="50" relative="1" as="geometry">
            <mxPoint x="179" y="165" as="sourcePoint" />
            <mxPoint x="109" y="165" as="targetPoint" />
          </mxGeometry>
        </mxCell>
        <mxCell id="UUyqQvhFd6GukPTLQ79a-9" value="" style="endArrow=classic;html=1;rounded=0;endFill=1;" parent="5tvh4FMFr1Dn6_LqTV1b-3" edge="1">
          <mxGeometry width="50" height="50" relative="1" as="geometry">
            <mxPoint x="179" y="165" as="sourcePoint" />
            <mxPoint x="179" y="145" as="targetPoint" />
          </mxGeometry>
        </mxCell>
        <mxCell id="UUyqQvhFd6GukPTLQ79a-10" value="Iterationen" style="text;html=1;align=center;verticalAlign=middle;whiteSpace=wrap;rounded=0;" parent="5tvh4FMFr1Dn6_LqTV1b-3" vertex="1">
          <mxGeometry x="114" y="140" width="60" height="30" as="geometry" />
        </mxCell>
        <mxCell id="5tvh4FMFr1Dn6_LqTV1b-4" value="Phase 4" style="swimlane;whiteSpace=wrap;html=1;" parent="1" vertex="1">
          <mxGeometry x="601" y="200" width="200" height="260" as="geometry" />
        </mxCell>
        <mxCell id="5tvh4FMFr1Dn6_LqTV1b-12" value="HMI" style="rounded=0;whiteSpace=wrap;html=1;fillColor=#f8cecc;strokeColor=#b85450;" parent="5tvh4FMFr1Dn6_LqTV1b-4" vertex="1">
          <mxGeometry x="25" y="80" width="150" height="30" as="geometry" />
        </mxCell>
        <mxCell id="5tvh4FMFr1Dn6_LqTV1b-32" value="CDR" style="rhombus;whiteSpace=wrap;html=1;fillColor=#f5f5f5;fontColor=#333333;strokeColor=#666666;" parent="5tvh4FMFr1Dn6_LqTV1b-4" vertex="1">
          <mxGeometry x="-20" y="23" width="40" height="40" as="geometry" />
        </mxCell>
        <mxCell id="5tvh4FMFr1Dn6_LqTV1b-18" style="edgeStyle=orthogonalEdgeStyle;rounded=0;orthogonalLoop=1;jettySize=auto;html=1;fillColor=#ffe6cc;strokeColor=#d79b00;entryX=0;entryY=0.75;entryDx=0;entryDy=0;" parent="1" source="5tvh4FMFr1Dn6_LqTV1b-5" target="5tvh4FMFr1Dn6_LqTV1b-13" edge="1">
          <mxGeometry relative="1" as="geometry">
            <mxPoint x="371" y="410" as="targetPoint" />
            <Array as="points">
              <mxPoint x="211" y="295" />
              <mxPoint x="211" y="393" />
              <mxPoint x="426" y="393" />
            </Array>
          </mxGeometry>
        </mxCell>
        <mxCell id="5tvh4FMFr1Dn6_LqTV1b-19" style="edgeStyle=orthogonalEdgeStyle;rounded=0;orthogonalLoop=1;jettySize=auto;html=1;entryX=0;entryY=0.5;entryDx=0;entryDy=0;fillColor=#ffe6cc;strokeColor=#d79b00;" parent="1" source="5tvh4FMFr1Dn6_LqTV1b-5" target="5tvh4FMFr1Dn6_LqTV1b-15" edge="1">
          <mxGeometry relative="1" as="geometry">
            <Array as="points">
              <mxPoint x="211" y="295" />
              <mxPoint x="211" y="355" />
            </Array>
          </mxGeometry>
        </mxCell>
        <mxCell id="5tvh4FMFr1Dn6_LqTV1b-20" style="edgeStyle=orthogonalEdgeStyle;rounded=0;orthogonalLoop=1;jettySize=auto;html=1;fillColor=#ffe6cc;strokeColor=#d79b00;" parent="1" source="5tvh4FMFr1Dn6_LqTV1b-5" target="5tvh4FMFr1Dn6_LqTV1b-7" edge="1">
          <mxGeometry relative="1" as="geometry" />
        </mxCell>
        <mxCell id="5tvh4FMFr1Dn6_LqTV1b-24" style="edgeStyle=orthogonalEdgeStyle;rounded=0;orthogonalLoop=1;jettySize=auto;html=1;entryX=0;entryY=0.25;entryDx=0;entryDy=0;fillColor=#ffe6cc;strokeColor=#d79b00;" parent="1" source="5tvh4FMFr1Dn6_LqTV1b-7" target="5tvh4FMFr1Dn6_LqTV1b-11" edge="1">
          <mxGeometry relative="1" as="geometry">
            <Array as="points">
              <mxPoint x="411" y="295" />
              <mxPoint x="411" y="317" />
            </Array>
          </mxGeometry>
        </mxCell>
        <mxCell id="5tvh4FMFr1Dn6_LqTV1b-23" style="edgeStyle=orthogonalEdgeStyle;rounded=0;orthogonalLoop=1;jettySize=auto;html=1;entryX=0;entryY=0.75;entryDx=0;entryDy=0;fillColor=#f8cecc;strokeColor=#b85450;" parent="1" source="5tvh4FMFr1Dn6_LqTV1b-14" target="5tvh4FMFr1Dn6_LqTV1b-11" edge="1">
          <mxGeometry relative="1" as="geometry">
            <mxPoint x="371" y="450" as="targetPoint" />
            <Array as="points">
              <mxPoint x="411" y="425" />
              <mxPoint x="411" y="333" />
            </Array>
          </mxGeometry>
        </mxCell>
        <mxCell id="5tvh4FMFr1Dn6_LqTV1b-25" style="edgeStyle=orthogonalEdgeStyle;rounded=0;orthogonalLoop=1;jettySize=auto;html=1;entryX=0;entryY=0.25;entryDx=0;entryDy=0;fillColor=#f8cecc;strokeColor=#b85450;" parent="1" source="5tvh4FMFr1Dn6_LqTV1b-11" target="5tvh4FMFr1Dn6_LqTV1b-12" edge="1">
          <mxGeometry relative="1" as="geometry">
            <Array as="points">
              <mxPoint x="591" y="325" />
              <mxPoint x="591" y="287" />
            </Array>
          </mxGeometry>
        </mxCell>
        <mxCell id="5tvh4FMFr1Dn6_LqTV1b-26" style="edgeStyle=orthogonalEdgeStyle;rounded=0;orthogonalLoop=1;jettySize=auto;html=1;entryX=0;entryY=0.75;entryDx=0;entryDy=0;fillColor=#f8cecc;strokeColor=#b85450;" parent="1" source="5tvh4FMFr1Dn6_LqTV1b-14" target="5tvh4FMFr1Dn6_LqTV1b-12" edge="1">
          <mxGeometry relative="1" as="geometry">
            <Array as="points">
              <mxPoint x="611" y="425" />
              <mxPoint x="611" y="303" />
            </Array>
          </mxGeometry>
        </mxCell>
        <mxCell id="5tvh4FMFr1Dn6_LqTV1b-27" style="edgeStyle=orthogonalEdgeStyle;rounded=0;orthogonalLoop=1;jettySize=auto;html=1;entryX=0;entryY=0.25;entryDx=0;entryDy=0;fillColor=#f8cecc;strokeColor=#b85450;flowAnimation=0;" parent="1" source="5tvh4FMFr1Dn6_LqTV1b-15" target="5tvh4FMFr1Dn6_LqTV1b-13" edge="1">
          <mxGeometry relative="1" as="geometry">
            <Array as="points">
              <mxPoint x="391" y="355" />
              <mxPoint x="391" y="377" />
            </Array>
          </mxGeometry>
        </mxCell>
        <mxCell id="5tvh4FMFr1Dn6_LqTV1b-34" value="DR" style="rhombus;whiteSpace=wrap;html=1;fillColor=#f5f5f5;fontColor=#333333;strokeColor=#666666;" parent="1" vertex="1">
          <mxGeometry x="781" y="223" width="40" height="40" as="geometry" />
        </mxCell>
        <mxCell id="5tvh4FMFr1Dn6_LqTV1b-37" value="&lt;b&gt;&amp;nbsp;Acronyms:&amp;nbsp;&lt;/b&gt;&lt;div&gt;&lt;br&gt;&lt;/div&gt;&lt;div&gt;&amp;nbsp;KO&lt;span style=&quot;white-space: pre;&quot;&gt;&#x9;&lt;/span&gt;&lt;span style=&quot;white-space: pre;&quot;&gt;&#x9;&lt;/span&gt;Kick-Off von Entwicklungsphase&amp;nbsp;&lt;/div&gt;&lt;div&gt;&amp;nbsp;SR&lt;span style=&quot;white-space: pre;&quot;&gt;&#x9;&lt;/span&gt;&lt;span style=&quot;white-space: pre;&quot;&gt;&#x9;&lt;/span&gt;Structur-Review&lt;/div&gt;&lt;div&gt;&amp;nbsp;MDR&lt;span style=&quot;white-space: pre;&quot;&gt;&#x9;&lt;/span&gt;Mechanical-Design-Review&lt;/div&gt;&lt;div&gt;&amp;nbsp;CDR&lt;span style=&quot;white-space: pre;&quot;&gt;&#x9;&lt;/span&gt;Critical-Design-Review&lt;/div&gt;&lt;div&gt;&amp;nbsp;DR&lt;span style=&quot;white-space: pre;&quot;&gt;&#x9;&lt;/span&gt;&lt;span style=&quot;white-space: pre;&quot;&gt;&#x9;&lt;/span&gt;Delivery-Review&lt;/div&gt;" style="rounded=0;whiteSpace=wrap;html=1;verticalAlign=top;align=left;fillColor=#f5f5f5;fontColor=#333333;strokeColor=#666666;" parent="1" vertex="1">
          <mxGeometry x="551" y="490" width="250" height="110" as="geometry" />
        </mxCell>
      </root>
    </mxGraphModel>
  </diagram>
</mxfile>
